<?xml version="1.0" standalone="no"?>
<!DOCTYPE svg PUBLIC "-//W3C//DTD SVG 20010904//EN"
 "http://www.w3.org/TR/2001/REC-SVG-20010904/DTD/svg10.dtd">
<svg version="1.0" xmlns="http://www.w3.org/2000/svg"
 width="700.000000pt" height="700.000000pt" viewBox="0 0 700.000000 700.000000"
 preserveAspectRatio="xMidYMid meet">
<metadata>
Created by potrace 1.14, written by Peter Selinger 2001-2017
</metadata>
<g transform="translate(0.000000,700.000000) scale(0.100000,-0.100000)"
fill="#000000" stroke="none">
<path d="M3180 6004 c-531 -68 -1036 -310 -1422 -683 -231 -222 -385 -433
-524 -716 -176 -360 -254 -698 -254 -1107 0 -394 78 -740 244 -1084 126 -261
261 -455 456 -657 215 -224 425 -378 699 -515 237 -119 437 -184 715 -235 120
-21 135 -21 1404 -25 l1283 -3 60 27 c113 51 179 153 179 279 0 92 -24 151
-89 216 -97 96 15 89 -1348 89 -770 0 -1228 4 -1291 11 -423 46 -825 237
-1129 537 -300 297 -486 664 -549 1083 -21 140 -20 412 1 549 102 653 520
1202 1112 1464 855 379 1848 85 2366 -699 443 -672 410 -1558 -83 -2205 -84
-110 -100 -148 -100 -241 0 -65 4 -85 30 -137 57 -112 146 -167 270 -166 130
0 194 42 317 208 237 317 394 688 464 1097 21 117 24 167 24 404 0 295 -9 377
-66 614 -43 176 -101 331 -190 510 -378 762 -1103 1278 -1947 1385 -151 20
-482 20 -632 0z"/>
<path d="M2571 4804 c-170 -46 -314 -189 -365 -363 -20 -67 -21 -207 -2 -276
53 -200 220 -352 424 -387 244 -41 492 110 571 349 97 290 -71 601 -365 677
-76 20 -191 20 -263 0z"/>
<path d="M4160 4805 c-94 -26 -161 -65 -231 -135 -164 -164 -202 -398 -99
-607 116 -236 387 -348 634 -263 152 52 280 186 328 343 27 89 22 253 -10 335
-57 148 -173 262 -319 314 -77 27 -227 34 -303 13z"/>
<path d="M3438 3726 c-190 -52 -236 -300 -77 -416 157 -113 376 1 373 195 -2
154 -146 262 -296 221z"/>
<path d="M2620 3223 c-188 -31 -355 -180 -412 -366 -27 -90 -22 -253 10 -336
116 -297 446 -425 732 -283 76 38 179 143 219 223 77 156 77 321 1 476 -71
145 -199 247 -347 278 -65 14 -149 17 -203 8z"/>
<path d="M4173 3216 c-268 -61 -447 -344 -389 -614 53 -251 260 -422 511 -422
231 0 433 153 499 379 20 68 21 208 1 280 -44 166 -172 306 -331 362 -77 26
-209 33 -291 15z"/>
</g>
</svg>
