<svg width="364" height="184" viewBox="0 0 364 184" fill="none" xmlns="http://www.w3.org/2000/svg">
<path d="M265.297 141.96H75.1725L35.1829 10.8179C34.8001 9.56563 34.716 8.24072 34.9371 6.94984C35.1582 5.65895 35.6785 4.43817 36.4561 3.38576C37.2336 2.33335 38.2467 1.47872 39.4138 0.890653C40.5809 0.302588 41.8693 -0.00247721 43.1755 1.51496e-05H215.833C217.621 -0.000141006 219.361 0.57532 220.798 1.64165C222.235 2.70799 223.292 4.20883 223.814 5.92316L265.297 141.96Z" fill="#341268"/>
<path d="M234.161 126.348H97.762C95.9583 126.348 94.2022 125.767 92.7521 124.692C91.3019 123.616 90.2342 122.102 89.7059 120.373L59.4231 21.0582C59.2303 20.4281 59.1876 19.7614 59.2985 19.1118C59.4095 18.4621 59.6709 17.8477 60.0619 17.3178C60.4528 16.788 60.9623 16.3576 61.5494 16.0612C62.1365 15.7648 62.7847 15.6108 63.442 15.6115H199.838C201.642 15.6118 203.398 16.1924 204.848 17.2681C206.299 18.3437 207.366 19.8575 207.895 21.587L238.179 120.901C238.371 121.531 238.414 122.198 238.303 122.848C238.192 123.497 237.931 124.112 237.54 124.642C237.149 125.172 236.639 125.602 236.052 125.898C235.465 126.195 234.817 126.349 234.16 126.348H234.161Z" fill="#482667"/>
<path d="M75.1724 141.959H330.551C331.404 141.96 332.249 142.128 333.037 142.456C333.825 142.783 334.542 143.263 335.145 143.869C335.748 144.474 336.226 145.192 336.553 145.982C336.879 146.773 337.047 147.62 337.047 148.476V157.18C337.046 158.908 336.362 160.564 335.144 161.786C333.926 163.007 332.274 163.694 330.551 163.694H81.668C79.9453 163.694 78.2933 163.007 77.0752 161.786C75.8571 160.564 75.1727 158.908 75.1724 157.18V141.959Z" fill="#2B0F57"/>
<path d="M106.297 75.7605L121.83 58.3728" stroke="#674B7C" stroke-width="11.336" stroke-miterlimit="10" stroke-linecap="round"/>
<path d="M125.497 75.7605L102.106 58.3728" stroke="#674B7C" stroke-width="11.336" stroke-miterlimit="10" stroke-linecap="round"/>
<path d="M182.999 75.7606L198.531 58.3729" stroke="#674B7C" stroke-width="11.336" stroke-miterlimit="10" stroke-linecap="round"/>
<path d="M202.199 75.7605L178.804 58.3728" stroke="#674B7C" stroke-width="11.336" stroke-miterlimit="10" stroke-linecap="round"/>
<path d="M144.606 86.7542C144.606 86.7542 156.782 80.02 169.149 86.7542" stroke="#674B7C" stroke-width="11.336" stroke-miterlimit="10" stroke-linecap="round"/>
<path d="M277.581 66.23C276.173 66.2265 274.808 65.7404 273.713 64.8523C272.618 63.9642 271.859 62.7275 271.561 61.3472C270.416 56.1707 269.69 52.218 270.701 48.5207C271.913 44.1363 275.112 41.5692 278.558 39.1123C280.882 37.4605 282.495 34.9536 282.675 32.7313C282.727 31.9992 282.607 31.2649 282.325 30.5879C282.042 29.9109 281.604 29.3102 281.046 28.8345C277.432 25.3171 271.579 30.79 271.317 31.0264C271.317 31.0264 266.401 35.2007 262.748 30.824C259.096 26.4473 262.748 22.1081 262.748 22.1081C265.104 19.9139 267.815 18.137 270.765 16.8531C277.795 13.8471 284.493 14.9732 289.628 19.9465C291.486 21.6925 292.931 23.8339 293.856 26.2132C294.78 28.5925 295.162 31.1494 294.972 33.6959C294.52 39.6191 291.053 45.4338 285.689 49.2377C283.17 51.0283 282.695 51.6624 282.579 51.8655C282.291 52.7813 283.241 57.0717 283.6 58.6896C283.799 59.5941 283.794 60.5319 283.584 61.434C283.374 62.3361 282.966 63.1797 282.389 63.9029C281.811 64.6261 281.08 65.2104 280.248 65.6131C279.416 66.0158 278.505 66.2266 277.581 66.23Z" fill="#7B1E07"/>
<path d="M280.557 87.708C284.51 87.708 287.715 84.4931 287.715 80.5273C287.715 76.5614 284.51 73.3465 280.557 73.3465C276.603 73.3465 273.398 76.5614 273.398 80.5273C273.398 84.4931 276.603 87.708 280.557 87.708Z" fill="#7B1E07"/>
</svg>
