<svg width="60" height="20" viewBox="0 0 60 20" fill="none" xmlns="http://www.w3.org/2000/svg">
<path d="M30.8688 16.1748H23.3307V3.23499H30.5522V4.94614H25.3157V8.53083H28.9569V10.2545H25.3157V14.3388H30.8688V16.1748ZM34.303 16.1748H32.318V3.23499H39.5273V4.94614H34.303V8.53083H37.9442V10.2545H34.303V16.1748ZM42.9737 4.94614V14.4512H44.1671C45.3281 14.4512 46.2211 14.0223 46.8463 13.1647C47.4633 12.307 47.7718 11.1829 47.7718 9.79233C47.7718 7.13609 46.9437 5.57065 45.2875 5.09602C44.9465 4.9961 44.5731 4.94614 44.1671 4.94614H42.9737ZM43.9479 16.1748H40.9765V3.23499H43.9479C46.9924 3.23499 48.8313 4.48817 49.4645 6.99453C49.6594 7.80223 49.7568 8.6474 49.7568 9.53004C49.7568 10.421 49.7 11.1704 49.5863 11.7783C49.4645 12.3861 49.2616 12.9648 48.9774 13.5144C48.6852 14.064 48.3239 14.5303 47.8936 14.9133C46.9437 15.7543 45.6285 16.1748 43.9479 16.1748ZM53.2032 4.94614V8.59328H55.2491C55.8092 8.59328 56.2964 8.36845 56.7104 7.91881C57.027 7.57741 57.1854 7.12776 57.1854 6.56987C57.1854 5.48738 56.5399 4.94614 55.2491 4.94614H53.2032ZM53.2032 10.3419V14.4512H55.3343C56.1137 14.4512 56.6617 14.2638 56.9783 13.8891C57.2544 13.5727 57.3924 13.1106 57.3924 12.5027C57.3924 11.9948 57.2057 11.516 56.8322 11.0663C56.4344 10.5834 55.9351 10.3419 55.3343 10.3419H53.2032ZM55.3343 16.1748H51.206V3.23499H55.2612C56.4547 3.23499 57.3802 3.53475 58.0378 4.13428C58.6792 4.70883 58.9999 5.43742 58.9999 6.32006C58.9999 7.78558 58.4803 8.72234 57.4411 9.13035C57.2706 9.19697 57.0636 9.25942 56.82 9.31771C57.5182 9.45926 58.0946 9.80482 58.5493 10.3544C59.0364 10.9373 59.28 11.7075 59.28 12.6651C59.28 14.014 58.8618 14.9716 58.0256 15.5378C57.3924 15.9625 56.4953 16.1748 55.3343 16.1748Z" fill="#EAA011"/>
<path d="M10.4222 19.4098C5.1985 19.4098 0.959961 15.0625 0.959961 9.70488C0.959961 4.34722 5.1985 0 10.4222 0C15.6459 0 19.8845 4.34722 19.8845 9.70488C19.8845 11.9607 19.1284 14.1461 17.7308 15.885C17.3184 16.3785 16.6082 16.4489 16.1271 16.0495C15.6459 15.6265 15.5772 14.898 15.9667 14.4046C17.0206 13.0887 17.5934 11.4438 17.5934 9.72838C17.5934 5.68663 14.3858 2.37335 10.4222 2.37335C6.48152 2.37335 3.25106 5.66314 3.25106 9.72838C3.25106 13.7936 6.45861 17.0834 10.4222 17.0834C11.0637 17.0834 11.5678 17.6004 11.5678 18.2583C11.5678 18.9163 11.0637 19.4098 10.4222 19.4098Z" fill="#EAA011"/>
<path d="M13.4008 4.62915C12.8967 4.62915 12.3927 4.81714 12.0261 5.21661C11.2701 5.99206 11.2701 7.26098 12.0261 8.05993C12.4156 8.45941 12.8967 8.64739 13.4008 8.64739C13.9048 8.64739 14.4089 8.45941 14.7754 8.05993C15.5315 7.28448 15.5315 6.01556 14.7754 5.21661C14.4089 4.84064 13.9048 4.62915 13.4008 4.62915ZM7.44391 10.7623C6.93987 10.7623 6.43582 10.9502 6.06925 11.3497C5.31318 12.1252 5.31318 13.3941 6.06925 14.193C6.45873 14.5925 6.93987 14.7805 7.44391 14.7805C7.94795 14.7805 8.45199 14.5925 8.81857 14.193C9.57464 13.4176 9.57464 12.1487 8.81857 11.3497C8.42908 10.9502 7.94795 10.7623 7.44391 10.7623ZM13.4008 10.7623C12.8967 10.7623 12.3927 10.9502 12.0261 11.3497C11.2701 12.1252 11.2701 13.3941 12.0261 14.193C12.4156 14.5925 12.8967 14.7805 13.4008 14.7805C13.9048 14.7805 14.4089 14.5925 14.7754 14.193C15.5315 13.4176 15.5315 12.1487 14.7754 11.3497C14.4089 10.9502 13.9048 10.7623 13.4008 10.7623ZM7.44391 4.62915C6.93987 4.62915 6.43582 4.81714 6.06925 5.21661C5.31318 5.99206 5.31318 7.26098 6.06925 8.05993C6.45873 8.45941 6.96278 8.64739 7.44391 8.64739C7.94795 8.64739 8.45199 8.45941 8.81857 8.05993C9.57464 7.28448 9.57464 6.01556 8.81857 5.21661C8.42908 4.84064 7.94795 4.62915 7.44391 4.62915Z" fill="#EAA011"/>
<path d="M10.4222 8.81195C10.1931 8.81195 9.98694 8.90594 9.80365 9.07043C9.45998 9.42291 9.45998 9.98688 9.80365 10.3394C9.96402 10.5038 10.1931 10.5978 10.4222 10.5978C10.6514 10.5978 10.8576 10.5038 11.0408 10.3394C11.3845 9.98688 11.3845 9.42291 11.0408 9.07043C10.8576 8.90594 10.6514 8.81195 10.4222 8.81195Z" fill="#EAA011"/>
<path d="M18.739 19.4098H10.3306C9.6891 19.4098 9.18506 18.8928 9.18506 18.2349C9.18506 17.5769 9.6891 17.0599 10.3306 17.0599H18.739C19.3805 17.0599 19.8845 17.5769 19.8845 18.2349C19.8845 18.8928 19.3576 19.4098 18.739 19.4098Z" fill="#EAA011"/>
</svg>
